HIERARCHY
ROOT hip
{
	OFFSET 0.000000 0.000000 0.000000
	CHANNELS 6 Xposition Yposition Zposition Zrotation Yrotation Xrotation 
	JOINT lhipjoint
	{
		OFFSET 0.000000 0.000000 0.000000
		CHANNELS 3 Zrotation Yrotation Xrotation
		JOINT lfemur
		{
			OFFSET 1.363060 -1.794630 0.839290
			CHANNELS 3 Zrotation Yrotation Xrotation
			JOINT ltibia
			{
				OFFSET 2.448110 -6.726130 0.000000
				CHANNELS 3 Zrotation Yrotation Xrotation
				JOINT lfoot
				{
					OFFSET 2.562200 -7.039590 0.000000
					CHANNELS 3 Zrotation Yrotation Xrotation
					JOINT ltoes
					{
						OFFSET 0.157640 -0.433110 2.322550
						CHANNELS 3 Zrotation Yrotation Xrotation
						End Site
						{
							OFFSET 0.000000 0.000000 0.000000
						}
					}
				}
			}
		}
	}
	JOINT rhipjoint
	{
		OFFSET 0.000000 0.000000 0.000000
		CHANNELS 3 Zrotation Yrotation Xrotation
		JOINT rfemur
		{
			OFFSET -1.305520 -1.794630 0.839290
			CHANNELS 3 Zrotation Yrotation Xrotation
			JOINT rtibia
			{
				OFFSET -2.542530 -6.985550 0.000000
				CHANNELS 3 Zrotation Yrotation Xrotation
				JOINT rfoot
				{
					OFFSET -2.568260 -7.056230 0.000000
					CHANNELS 3 Zrotation Yrotation Xrotation
					JOINT rtoes
					{
						OFFSET -0.164730 -0.452590 2.363150
						CHANNELS 3 Zrotation Yrotation Xrotation
						End Site
						{
							OFFSET 0.000000 0.000000 0.000000
						}
					}
				}
			}
		}
	}
	JOINT lowerback
	{
		OFFSET 0.000000 0.000000 0.000000
		CHANNELS 3 Zrotation Yrotation Xrotation
		JOINT upperback
		{
			OFFSET 0.028270 2.035590 -0.193380
			CHANNELS 3 Zrotation Yrotation Xrotation
			JOINT thorax
			{
				OFFSET 0.056720 2.048850 -0.042750
				CHANNELS 3 Zrotation Yrotation Xrotation
				JOINT lowerneck
				{
					OFFSET 0.000000 0.000000 0.000000
					CHANNELS 3 Zrotation Yrotation Xrotation
					JOINT upperneck
					{
						OFFSET -0.054170 1.746240 0.172020
						CHANNELS 3 Zrotation Yrotation Xrotation
						JOINT head
						{
							OFFSET 0.104070 1.761360 -0.123970
							CHANNELS 3 Zrotation Yrotation Xrotation
							End Site
							{
								OFFSET 0.000000 0.000000 0.000000
							}
						}
					}
				}
				JOINT lclavicle
				{
					OFFSET 0.000000 0.000000 0.000000
					CHANNELS 3 Zrotation Yrotation Xrotation
					JOINT lhumerus
					{
						OFFSET 3.362410 1.200890 -0.311210
						CHANNELS 3 Zrotation Yrotation Xrotation
						JOINT lradius
						{
							OFFSET 4.983000 -0.000000 -0.000000
							CHANNELS 3 Zrotation Yrotation Xrotation
							JOINT lwrist
							{
								OFFSET 3.483560 -0.000000 -0.000000
								CHANNELS 3 Zrotation Yrotation Xrotation
								JOINT lhand
								{
									OFFSET 0.000000 0.000000 0.000000
									CHANNELS 3 Zrotation Yrotation Xrotation
									JOINT lfingers
									{
										OFFSET 0.715260 -0.000000 -0.000000
										CHANNELS 3 Zrotation Yrotation Xrotation
										End Site
										{
											OFFSET 0.000000 0.000000 0.000000
										}
									}
								}
								JOINT lthumb
								{
									OFFSET 0.000000 0.000000 0.000000
									CHANNELS 3 Zrotation Yrotation Xrotation
									End Site
									{
										OFFSET 0.000000 0.000000 0.000000
									}
								}
							}
						}
					}
				}
				JOINT rclavicle
				{
					OFFSET 0.000000 0.000000 0.000000
					CHANNELS 3 Zrotation Yrotation Xrotation
					JOINT rhumerus
					{
						OFFSET -3.136600 1.374050 -0.404650
						CHANNELS 3 Zrotation Yrotation Xrotation
						JOINT rradius
						{
							OFFSET -5.241900 -0.000000 -0.000000
							CHANNELS 3 Zrotation Yrotation Xrotation
							JOINT rwrist
							{
								OFFSET -3.444170 -0.000000 -0.000000
								CHANNELS 3 Zrotation Yrotation Xrotation
								JOINT rhand
								{
									OFFSET 0.000000 0.000000 0.000000
									CHANNELS 3 Zrotation Yrotation Xrotation
									JOINT rfingers
									{
										OFFSET -0.622530 -0.000000 -0.000000
										CHANNELS 3 Zrotation Yrotation Xrotation
										End Site
										{
											OFFSET 0.000000 0.000000 0.000000
										}
									}
								}
								JOINT rthumb
								{
									OFFSET 0.000000 0.000000 0.000000
									CHANNELS 3 Zrotation Yrotation Xrotation
									End Site
									{
										OFFSET 0.000000 0.000000 0.000000
									}
								}
							}
						}
					}
				}
			}
		}
	}
}
MOTION
Frames: 8
Frame Time: 0.008333
-1.678234 17.974242 1.157770 -172.731926 -12.775290 166.899874 -1.631422 2.967007 2.540581 -5.218780 0.053221 13.389872 0.439349 4.638761 13.600291 0.599135 -2.145028 1.195086 1.831000 -8.504800 -24.258100 0.180185 -4.175351 1.310702 30.052276 -0.733909 3.244906 -1.717403 -6.028191 22.078300 1.560416 -7.467670 -0.652493 -0.045300 -1.373600 3.777400 6.266383 -1.061144 16.949813 1.934956 -1.621114 -2.682541 3.723791 -0.853829 4.337573 -3.090628 -4.098027 -12.532406 -0.981246 -4.470517 2.077014 3.190900 -1.762000 2.510800 0.314041 3.048341 0.732775 -74.483774 -8.859799 29.111808 67.697122 -64.472115 -36.590451 1.108230 0.865500 108.982712 16.486738 17.920443 5.322300 -7.125000 0.000000 0.000000 -9.798500 47.526600 -0.616500 1.638520 0.222596 2.513148 70.907547 2.394030 39.561231 -118.963704 48.923447 -79.237363 1.135992 -3.078210 -10.722107 -42.491198 4.330011 -8.111900 7.125000 0.000000 0.000000 -11.436600 -18.215500 -7.438200 
-1.705600 17.976702 1.186264 -172.696956 -12.782102 166.889016 -1.626324 2.963821 2.541096 -5.324884 -0.065873 13.741304 0.387703 4.428627 12.992622 0.588109 -2.079647 1.247635 1.732700 -8.285600 -23.585000 0.181450 -4.176330 1.304261 29.965754 -0.706401 3.168000 -1.716178 -6.034577 22.078912 1.568212 -7.499766 -0.537404 -0.040400 -1.297300 3.567300 6.356171 -1.041621 16.894914 1.931409 -1.602710 -2.662805 3.663246 -0.834809 4.431295 -3.112479 -4.130804 -12.456943 -0.937967 -4.515938 2.138516 3.225700 -1.783500 2.516600 0.339636 3.093146 0.775270 -75.267758 -9.753131 30.135608 69.095960 -64.752876 -37.383422 1.166653 0.945009 109.024962 16.267603 18.519929 5.450200 -7.125000 0.000000 0.000000 -10.077700 48.078700 -0.772800 1.607623 0.186079 2.489907 71.485816 2.731208 41.137103 -119.615264 48.552682 -79.950157 1.167520 -2.978313 -11.253414 -44.369785 3.826344 -8.194200 7.125000 0.000000 0.000000 -12.817300 -18.527300 -8.289900 
-1.733683 17.978136 1.215782 -172.656729 -12.795418 166.862236 -1.621749 2.960193 2.542618 -5.436536 -0.214639 14.099851 0.340728 4.229849 12.415396 0.567591 -1.952669 1.319602 1.613400 -8.009500 -22.742900 0.181436 -4.177579 1.298941 29.893273 -0.658812 3.113145 -1.715560 -6.040492 22.078793 1.582546 -7.562518 -0.447077 -0.034500 -1.199600 3.298100 6.453470 -1.032149 16.865439 1.930205 -1.594529 -2.645861 3.615464 -0.822384 4.516682 -3.173163 -4.161026 -12.416321 -0.900360 -4.554408 2.243166 3.267900 -1.804000 2.561400 0.367996 3.133084 0.815437 -76.063342 -10.628364 31.411324 70.244214 -64.979393 -37.974686 1.200322 1.058804 108.845719 15.676814 19.333845 5.527800 -7.125000 0.000000 0.000000 -10.775100 48.827100 -1.028000 1.572893 0.144478 2.463293 72.064673 3.097305 42.877711 -120.024456 48.257317 -80.340154 1.187107 -2.894102 -11.673137 -46.288656 3.445905 -8.418200 7.125000 0.000000 0.000000 -14.187500 -18.624300 -9.199400 
-1.762587 17.980904 1.243968 -172.629695 -12.809402 166.865644 -1.617411 2.955423 2.541914 -5.569749 -0.347395 14.422411 0.297089 4.032621 11.850065 0.547201 -1.827985 1.383146 1.508700 -7.757400 -21.979600 0.183424 -4.178193 1.294651 29.813891 -0.548461 3.057606 -1.715913 -6.050271 22.086004 1.602529 -7.652911 -0.384154 -0.031100 -1.138500 3.130000 6.548888 -1.025555 16.783474 1.923986 -1.594933 -2.629050 3.534170 -0.808831 4.625791 -3.206008 -4.191537 -12.379565 -0.850636 -4.602286 2.368860 3.310700 -1.830300 2.616900 0.400620 3.179664 0.857908 -76.877957 -11.520123 32.926074 71.070810 -65.161572 -38.323787 1.205808 1.202943 108.479795 14.785557 20.342052 5.553700 -7.125000 0.000000 0.000000 -11.843400 49.753800 -1.405600 1.527051 0.093816 2.434515 72.704250 3.552542 44.817845 -120.116931 48.071008 -80.296774 1.199683 -2.846201 -12.022302 -48.100887 3.305143 -8.924200 7.125000 0.000000 0.000000 -15.407000 -18.318900 -10.157500 
-1.792720 17.981826 1.273281 -172.585213 -12.824737 166.843659 -1.613296 2.951064 2.540320 -5.678267 -0.439411 14.728817 0.258592 3.848814 11.325079 0.529039 -1.717579 1.431804 1.429500 -7.560100 -21.385800 0.184371 -4.179096 1.290319 29.758510 -0.426505 3.027961 -1.717060 -6.058761 22.090135 1.633160 -7.790121 -0.321024 -0.027100 -1.063600 2.923900 6.666555 -1.017019 16.725179 1.919774 -1.591485 -2.609929 3.455771 -0.795332 4.748402 -3.225034 -4.227537 -12.400054 -0.822857 -4.660165 2.513756 3.335300 -1.864000 2.699200 0.439274 3.229796 0.901111 -77.720811 -12.467041 34.757414 71.597162 -65.312645 -38.443201 1.177605 1.378032 107.841721 13.570973 21.508327 5.486800 -7.125000 0.000000 0.000000 -13.321800 50.810000 -1.936600 1.485385 0.034747 2.402630 73.226764 4.105608 47.080615 -119.979174 47.977865 -79.922304 1.210825 -2.829903 -12.401401 -49.596668 3.286833 -9.537200 7.125000 0.000000 0.000000 -16.360200 -17.828500 -11.025400 
-1.823673 17.983979 1.301774 -172.566574 -12.823683 166.833701 -1.612917 2.945940 2.538010 -5.811356 -0.500643 15.020607 0.223722 3.668457 10.817009 0.505519 -1.576796 1.491636 1.365400 -7.395700 -20.893000 0.183782 -4.181302 1.287962 29.682461 -0.265017 3.001695 -1.719056 -6.071377 22.103250 1.664037 -7.929894 -0.269486 -0.021300 -0.941700 2.588500 6.747930 -1.006501 16.654012 1.919106 -1.591606 -2.593499 3.412743 -0.785608 4.892533 -3.160089 -4.206181 -12.513600 -0.677970 -4.676099 2.836607 3.067600 -1.872700 2.608900 0.481214 3.261746 0.943412 -78.620628 -13.398981 36.860704 71.944297 -65.458838 -38.422352 1.124704 1.570371 106.967882 12.207066 22.726529 5.337500 -7.125000 0.000000 0.000000 -15.028500 51.891800 -2.598900 1.454853 -0.048047 2.357265 73.522210 4.635399 49.814395 -119.699318 47.957006 -79.307544 1.220944 -2.840445 -12.759458 -50.722122 3.303004 -10.122000 7.125000 0.000000 0.000000 -17.043200 -17.318700 -11.730400 
-1.855138 17.985311 1.330165 -172.523909 -12.818064 166.812062 -1.614310 2.943410 2.536038 -5.909844 -0.517659 15.279170 0.192740 3.500756 10.345327 0.486237 -1.460748 1.550204 1.323400 -7.285500 -20.564000 0.180651 -4.181607 1.283711 29.625964 -0.134275 2.980728 -1.721216 -6.082815 22.118905 1.684972 -8.023948 -0.205048 -0.018500 -0.878900 2.415600 6.779861 -1.045527 16.594727 1.929620 -1.662342 -2.575490 3.440318 -0.822684 5.029076 -3.153921 -4.166748 -12.579455 -0.684966 -4.640413 3.042989 3.056800 -1.866600 2.712600 0.524783 3.307329 0.989853 -79.484277 -14.281669 39.170249 72.203340 -65.606209 -38.339011 1.053144 1.767231 105.894265 10.781802 23.948230 5.114500 -7.125000 0.000000 0.000000 -16.873200 52.950200 -3.377100 1.435147 -0.124572 2.317097 73.614160 5.212276 53.054977 -119.268177 48.025747 -78.433824 1.238712 -2.894720 -13.149671 -51.226961 3.251307 -10.444000 7.125000 0.000000 0.000000 -17.333100 -17.021400 -12.068800 
-1.887014 17.986541 1.358863 -172.507012 -12.814610 166.801860 -1.617710 2.941594 2.533831 -6.034604 -0.511728 15.515796 0.164459 3.335624 9.887110 0.464533 -1.332038 1.612413 1.291100 -7.199500 -20.307900 0.178381 -4.181644 1.280430 29.540167 0.004143 2.940025 -1.724709 -6.098162 22.143505 1.709721 -8.136540 -0.156463 -0.014900 -0.788600 2.167400 6.780313 -1.081259 16.538436 1.940074 -1.729433 -2.561006 3.489218 -0.860610 5.148930 -3.165810 -4.140051 -12.641897 -0.697576 -4.618270 3.256601 3.045400 -1.867900 2.822300 0.565863 3.348567 1.032511 -80.286549 -15.133812 41.795046 72.502929 -65.764271 -38.256454 0.975842 1.945968 104.709265 9.452666 24.898329 4.821400 -7.125000 0.000000 0.000000 -18.566300 53.732000 -4.095600 1.416506 -0.201263 2.271858 73.622333 5.833431 56.478234 -118.734680 48.175551 -77.390558 1.272661 -2.997596 -13.516174 -50.962606 2.984096 -10.228500 7.125000 0.000000 0.000000 -17.192400 -17.234600 -11.876500 
